<?xml version="1.0" standalone="no"?><!DOCTYPE svg PUBLIC "-//W3C//DTD SVG 1.1//EN" "http://www.w3.org/Graphics/SVG/1.1/DTD/svg11.dtd"><svg t="1572672642954" class="icon" viewBox="0 0 1024 1024" version="1.1" xmlns="http://www.w3.org/2000/svg" p-id="1812" xmlns:xlink="http://www.w3.org/1999/xlink" width="128" height="128"><defs><style type="text/css"></style></defs><path d="M160 970.666667h64a42.666667 42.666667 0 0 0 42.666667-42.666667v-5.226667c0-9.706667-1.088-15.253333-4.117334-20.906666a30.058667 30.058667 0 0 0-12.437333-12.416c-5.632-3.029333-11.178667-4.117333-20.885333-4.117334h-74.453334c-9.706667 0-15.253333 1.088-20.906666 4.117334-5.333333 2.837333-9.578667 7.104-12.416 12.437333-3.029333 5.632-4.117333 11.178667-4.117334 20.885333v5.226667a42.666667 42.666667 0 0 0 42.666667 42.666667z" fill="#333549" p-id="1813"></path><path d="M160 949.333333a21.333333 21.333333 0 0 1-21.333333-21.333333v-5.226667c0-6.485333 0.426667-8.661333 1.578666-10.837333a8.725333 8.725333 0 0 1 3.690667-3.690667c2.176-1.152 4.352-1.578667 10.837333-1.578666h74.453334c6.485333 0 8.661333 0.426667 10.837333 1.578666 1.6 0.874667 2.816 2.090667 3.690667 3.690667 1.152 2.176 1.578667 4.352 1.578666 10.837333v5.226667a21.333333 21.333333 0 0 1-21.333333 21.333333h-64z" fill="#B9BECA" p-id="1814"></path><path d="M800 970.666667h64a42.666667 42.666667 0 0 0 42.666667-42.666667v-5.226667c0-9.706667-1.088-15.253333-4.117334-20.906666a30.058667 30.058667 0 0 0-12.437333-12.416c-5.632-3.029333-11.178667-4.117333-20.885333-4.117334h-74.453334c-9.706667 0-15.253333 1.088-20.906666 4.117334-5.333333 2.837333-9.578667 7.104-12.416 12.437333-3.029333 5.632-4.117333 11.178667-4.117334 20.885333v5.226667a42.666667 42.666667 0 0 0 42.666667 42.666667z" fill="#333549" p-id="1815"></path><path d="M800 949.333333a21.333333 21.333333 0 0 1-21.333333-21.333333v-5.226667c0-6.485333 0.426667-8.661333 1.578666-10.837333a8.725333 8.725333 0 0 1 3.690667-3.690667c2.176-1.152 4.352-1.578667 10.837333-1.578666h74.453334c6.485333 0 8.661333 0.426667 10.837333 1.578666 1.6 0.874667 2.816 2.090667 3.690667 3.690667 1.152 2.176 1.578667 4.352 1.578666 10.837333v5.226667a21.333333 21.333333 0 0 1-21.333333 21.333333h-64z" fill="#B9BECA" p-id="1816"></path><path d="M149.333333 757.333333h725.333334a74.666667 74.666667 0 0 1 0 149.333334H149.333333a74.666667 74.666667 0 0 1 0-149.333334z" fill="#333549" p-id="1817"></path><path d="M149.333333 778.666667a53.333333 53.333333 0 1 0 0 106.666666h725.333334a53.333333 53.333333 0 1 0 0-106.666666H149.333333z" fill="#FFEEB4" p-id="1818"></path><path d="M128 64h768a42.666667 42.666667 0 1 1 0 85.333333H128a42.666667 42.666667 0 1 1 0-85.333333z" fill="#333549" p-id="1819"></path><path d="M128 85.333333a21.333333 21.333333 0 1 0 0 42.666667h768a21.333333 21.333333 0 0 0 0-42.666667H128z" fill="#B9BECA" p-id="1820"></path><path d="M320 789.333333a42.666667 42.666667 0 1 1 0 85.333334 42.666667 42.666667 0 0 1 0-85.333334z" fill="#333549" p-id="1821"></path><path d="M320 810.666667a21.333333 21.333333 0 1 0 0 42.666666 21.333333 21.333333 0 0 0 0-42.666666z" fill="#FFFFFF" p-id="1822"></path><path d="M448 789.333333a42.666667 42.666667 0 1 1 0 85.333334 42.666667 42.666667 0 0 1 0-85.333334z" fill="#333549" p-id="1823"></path><path d="M448 810.666667a21.333333 21.333333 0 1 0 0 42.666666 21.333333 21.333333 0 0 0 0-42.666666z" fill="#FFFFFF" p-id="1824"></path><path d="M576 789.333333a42.666667 42.666667 0 1 1 0 85.333334 42.666667 42.666667 0 0 1 0-85.333334z" fill="#333549" p-id="1825"></path><path d="M576 810.666667a21.333333 21.333333 0 1 0 0 42.666666 21.333333 21.333333 0 0 0 0-42.666666z" fill="#FFFFFF" p-id="1826"></path><path d="M704 789.333333a42.666667 42.666667 0 1 1 0 85.333334 42.666667 42.666667 0 0 1 0-85.333334z" fill="#333549" p-id="1827"></path><path d="M704 810.666667a21.333333 21.333333 0 1 0 0 42.666666 21.333333 21.333333 0 0 0 0-42.666666z" fill="#FFFFFF" p-id="1828"></path><path d="M832 789.333333a42.666667 42.666667 0 1 1 0 85.333334 42.666667 42.666667 0 0 1 0-85.333334z" fill="#333549" p-id="1829"></path><path d="M832 810.666667a21.333333 21.333333 0 1 0 0 42.666666 21.333333 21.333333 0 0 0 0-42.666666z" fill="#FFFFFF" p-id="1830"></path><path d="M192 789.333333a42.666667 42.666667 0 1 1 0 85.333334 42.666667 42.666667 0 0 1 0-85.333334z" fill="#333549" p-id="1831"></path><path d="M192 810.666667a21.333333 21.333333 0 1 0 0 42.666666 21.333333 21.333333 0 0 0 0-42.666666z" fill="#FFFFFF" p-id="1832"></path><path d="M725.333333 128h128v85.333333h-128z" fill="#333549" p-id="1833"></path><path d="M746.666667 149.333333v42.666667h85.333333V149.333333z" fill="#B9BECA" p-id="1834"></path><path d="M731.349333 170.666667h115.968c10.282667 0 15.765333 1.066667 21.461334 4.117333 5.333333 2.837333 9.6 7.104 12.437333 12.437333 3.050667 5.696 4.117333 11.178667 4.117333 21.461334v51.968c0 10.282667-1.066667 15.765333-4.117333 21.461333-2.837333 5.333333-7.104 9.6-12.437333 12.437333-5.696 3.050667-11.178667 4.117333-21.461334 4.117334h-115.968c-10.282667 0-15.765333-1.066667-21.461333-4.117334a30.058667 30.058667 0 0 1-12.437333-12.437333c-3.050667-5.696-4.117333-11.178667-4.117334-21.461333V208.682667c0-10.282667 1.066667-15.765333 4.117334-21.461334 2.837333-5.333333 7.104-9.6 12.437333-12.437333C715.584 171.733333 721.066667 170.666667 731.349333 170.666667z" fill="#333549" p-id="1835"></path><path d="M731.349333 192c-7.061333 0-9.216 0.426667-11.413333 1.578667a8.725333 8.725333 0 0 0-3.690667 3.690666c-1.173333 2.197333-1.578667 4.352-1.578666 11.413334v51.968c0 7.061333 0.426667 9.216 1.578666 11.413333 0.874667 1.6 2.090667 2.816 3.690667 3.690667 2.197333 1.173333 4.352 1.578667 11.413333 1.578666h115.968c7.061333 0 9.216-0.426667 11.413334-1.578666a8.725333 8.725333 0 0 0 3.690666-3.690667c1.173333-2.197333 1.578667-4.352 1.578667-11.413333V208.682667c0-7.061333-0.426667-9.216-1.578667-11.413334a8.725333 8.725333 0 0 0-3.690666-3.690666C856.533333 192.426667 854.378667 192 847.317333 192h-115.968z" fill="#FFEEB4" p-id="1836"></path><path d="M492.053333 366.805333l223.36 128.96c8.405333 4.864 12.650667 8.576 16.021334 14.016 3.2 5.12 4.757333 10.944 4.565333 16.981334-0.213333 6.4-2.026667 11.733333-6.890667 20.138666l-5.226666 9.066667c-4.864 8.405333-8.576 12.672-13.994667 16.042667-5.141333 3.2-10.944 4.736-17.002667 4.544-6.4-0.213333-11.733333-2.026667-20.138666-6.869334l-223.36-128.981333c-8.405333-4.842667-12.672-8.554667-16.042667-13.994667a30.058667 30.058667 0 0 1-4.544-16.981333c0.213333-6.4 2.026667-11.733333 6.869333-20.138667l5.248-9.066666c4.842667-8.405333 8.554667-12.672 13.994667-16.042667 5.12-3.2 10.944-4.736 16.981333-4.544 6.4 0.213333 11.733333 2.026667 20.16 6.869333z" fill="#333549" p-id="1837"></path><path d="M481.386667 385.28c-5.610667-3.221333-7.722667-3.946667-10.176-4.032a8.725333 8.725333 0 0 0-5.034667 1.344c-2.090667 1.301333-3.562667 2.986667-6.784 8.597333l-5.248 9.066667c-3.221333 5.589333-3.946667 7.701333-4.032 10.154667a8.725333 8.725333 0 0 0 1.344 5.034666c1.301333 2.090667 2.986667 3.562667 8.597333 6.784l223.36 128.981334c5.610667 3.221333 7.722667 3.946667 10.176 4.032a8.725333 8.725333 0 0 0 5.034667-1.365334c2.069333-1.28 3.541333-2.965333 6.784-8.576l5.226667-9.066666c3.242667-5.589333 3.968-7.701333 4.053333-10.154667a8.725333 8.725333 0 0 0-1.365333-5.034667c-1.28-2.090667-2.986667-3.562667-8.576-6.805333l-223.36-128.96z" fill="#FFEEB4" p-id="1838"></path><path d="M637.141333 215.594667a74.666667 74.666667 0 1 1 51.925334 93.184l-166.762667 96.277333a74.666667 74.666667 0 1 1-54.741333-91.562667l169.578666-97.898666z" fill="#333549" p-id="1839"></path><path d="M465.898667 335.146667a53.333333 53.333333 0 1 0 36.586666 60.992l0.917334-4.778667 183.253333-105.813333 4.608 1.6a53.333333 53.333333 0 1 0-34.517333-62.165334l-1.066667 4.544-185.344 107.008-4.437333-1.386666z" fill="#FFEEB4" p-id="1840"></path><path d="M450.133333 418.133333a32 32 0 1 0 0-64 32 32 0 0 0 0 64z" fill="#333549" p-id="1841"></path><path d="M450.133333 396.8a10.666667 10.666667 0 1 1 0-21.333333 10.666667 10.666667 0 0 1 0 21.333333z" fill="#FFEEB4" p-id="1842"></path><path d="M708.266667 268.8a32 32 0 1 0 0-64 32 32 0 0 0 0 64z" fill="#333549" p-id="1843"></path><path d="M708.266667 247.466667a10.666667 10.666667 0 1 1 0-21.333334 10.666667 10.666667 0 0 1 0 21.333334z" fill="#FFEEB4" p-id="1844"></path><path d="M744.384 599.808l-42.666667 73.898667a32 32 0 0 1-55.424-32l42.666667-73.898667a32 32 0 1 1 55.424 32z" fill="#333549" p-id="1845"></path><path d="M725.909333 589.141333a10.666667 10.666667 0 1 0-18.474666-10.666666l-42.666667 73.898666a10.666667 10.666667 0 0 0 18.474667 10.666667l42.666666-73.898667z" fill="#B9BECA" p-id="1846"></path><path d="M791.253333 566.336l-25.941333 44.949333c-5.866667 10.154667-9.962667 14.869333-16.085333 18.666667a33.301333 33.301333 0 0 1-18.858667 5.056c-7.210667-0.213333-13.098667-2.261333-23.253333-8.128l-18.602667-10.730667c-10.154667-5.866667-14.869333-9.962667-18.666667-16.085333a33.301333 33.301333 0 0 1-5.056-18.837333c0.234667-7.232 2.261333-13.12 8.149334-23.274667l25.941333-44.949333c5.866667-10.176 9.941333-14.890667 16.085333-18.688 5.696-3.541333 12.138667-5.269333 18.837334-5.056 7.232 0.234667 13.12 2.261333 23.274666 8.149333l18.581334 10.709333c10.176 5.866667 14.869333 9.962667 18.688 16.085334 3.541333 5.717333 5.269333 12.16 5.056 18.858666-0.234667 7.210667-2.282667 13.098667-8.149334 23.253334z" fill="#333549" p-id="1847"></path><path d="M772.778667 555.669333c4.266667-7.381333 5.184-10.069333 5.290666-13.312a11.968 11.968 0 0 0-1.834666-6.890666c-1.706667-2.752-3.861333-4.608-11.242667-8.874667l-18.56-10.709333c-7.402667-4.266667-10.069333-5.205333-13.312-5.290667a11.968 11.968 0 0 0-6.890667 1.834667c-2.773333 1.706667-4.608 3.84-8.874666 11.242666l-25.941334 44.949334c-4.266667 7.36-5.205333 10.048-5.290666 13.290666a11.968 11.968 0 0 0 1.834666 6.890667c1.706667 2.752 3.84 4.608 11.221334 8.874667l18.602666 10.730666c7.36 4.266667 10.048 5.184 13.290667 5.290667a11.968 11.968 0 0 0 6.890667-1.856c2.752-1.706667 4.608-3.84 8.874666-11.221333l25.941334-44.949334z" fill="#FFEEB4" p-id="1848"></path><path d="M213.333333 608h298.666667a74.666667 74.666667 0 0 1 74.666667 74.666667v21.333333a74.666667 74.666667 0 0 1-74.666667 74.666667H213.333333A74.666667 74.666667 0 0 1 138.666667 704v-21.333333a74.666667 74.666667 0 0 1 74.666666-74.666667z" fill="#333549" p-id="1849"></path><path d="M213.333333 629.333333A53.333333 53.333333 0 0 0 160 682.666667v21.333333a53.333333 53.333333 0 0 0 53.333333 53.333333h298.666667a53.333333 53.333333 0 0 0 53.333333-53.333333v-21.333333a53.333333 53.333333 0 0 0-53.333333-53.333334H213.333333z" fill="#7DACFF" p-id="1850"></path><path d="M209.770667 725.333333h135.125333a10.666667 10.666667 0 1 0 0-21.333333H209.770667a10.666667 10.666667 0 1 0 0 21.333333zM400 725.333333h32a10.666667 10.666667 0 1 0 0-21.333333h-32a10.666667 10.666667 0 1 0 0 21.333333z" fill="#333549" p-id="1851"></path></svg>